<?xml version="1.0" encoding="UTF-8" standalone="no"?>
<!-- Generator: Adobe Illustrator 24.1.1, SVG Export Plug-In . SVG Version: 6.00 Build 0)  -->

<svg
   version="1.1"
   id="Layer_1"
   x="0px"
   y="0px"
   viewBox="0 0 512 512"
   style="enable-background:new 0 0 512 512;"
   xml:space="preserve"
   sodipodi:docname="Arrow-back-04.svg"
   inkscape:version="1.3.2 (091e20e, 2023-11-25, custom)"
   xmlns:inkscape="http://www.inkscape.org/namespaces/inkscape"
   xmlns:sodipodi="http://sodipodi.sourceforge.net/DTD/sodipodi-0.dtd"
   xmlns="http://www.w3.org/2000/svg"
   xmlns:svg="http://www.w3.org/2000/svg"><defs
   id="defs1" /><sodipodi:namedview
   id="namedview1"
   pagecolor="#505050"
   bordercolor="#eeeeee"
   borderopacity="1"
   inkscape:showpageshadow="0"
   inkscape:pageopacity="0"
   inkscape:pagecheckerboard="0"
   inkscape:deskcolor="#505050"
   inkscape:zoom="1.6269531"
   inkscape:cx="255.69268"
   inkscape:cy="255.38536"
   inkscape:window-width="1920"
   inkscape:window-height="1009"
   inkscape:window-x="-8"
   inkscape:window-y="-8"
   inkscape:window-maximized="1"
   inkscape:current-layer="Layer_1" />
<style
   type="text/css"
   id="style1">
	.st0{fill:#d3d3d3;}
</style>
<g
   id="g1"
   style="fill:#cccccc;fill-opacity:0.84107947">
	<path
   class="st0"
   d="M480,224H100.5L216.6,84.5c11.3-13.6,9.5-33.8-4.2-45.1s-33.8-9.5-45.1,4.2l-160,192l-2.9,4.8l-2.3,4.2   C0.8,248.2,0,252.1,0,256c0,3.9,0.8,7.8,2.2,11.5l2.3,4.2l2.9,4.8l160,192c6.1,7.3,15.1,11.5,24.6,11.5c7.5,0,14.7-2.6,20.5-7.4   c13.6-11.3,15.5-31.5,4.2-45.1l0-0.1L100.5,288H480c17.7,0,32-14.3,32-32S497.7,224,480,224z"
   id="path1"
   style="fill:#cccccc;fill-opacity:0.84107947" />
</g>
</svg>
